<?xml version="1.0" encoding="utf-8"?>
<svg xmlns="http://www.w3.org/2000/svg" viewBox="0 0 87.3031 56.7072" width="87.3031px" height="56.7072px">
  <path d="M 30.312 7.665 L 19.101 2.345 L 15.296 -4.253 L 21.711 -15.245 L 34.438 -15.299 C 34.438 -15.299 38.246 -8.702 38.246 -8.702 L 37.242 3.665 L 30.832 -6.311 C 29.91 -7.745 28.023 -8.206 26.543 -7.35 C 26.402 -7.268 26.258 -7.186 26.121 -7.108 C 24.644 -6.257 24.098 -4.393 24.879 -2.874 L 30.312 7.665 Z" fill-rule="evenodd" style="stroke-width: 1; fill: #2fbf71; transform-origin: 43.65px 28.354px;" transform="matrix(0, 1, -1, 0, -0.00000572, 0.00000286)"/>
  <path d="M 43.55 26.524 L 46.956 24.559 L 28.198 -4.621 C 28.179 -4.656 28.136 -4.664 28.105 -4.644 L 27.683 -4.402 C 27.648 -4.382 27.636 -4.339 27.655 -4.308 L 43.55 26.528 L 43.55 26.524 Z" fill-rule="evenodd" style="stroke-width: 1; fill: rgb(234, 246, 239); transform-origin: 43.65px 28.354px;" transform="matrix(0, 1, -1, 0, -0.00000572, 0.00000286)"/>
  <path d="M 43.488 30.169 L 50.144 26.325 L 52.183 29.864 L 45.527 33.708 L 43.488 30.169 Z" fill-rule="evenodd" style="stroke-width: 1; fill: rgb(234, 246, 239); transform-origin: 43.65px 28.354px;" transform="matrix(0, 1, -1, 0, -0.00000572, 0.00000286)"/>
  <path d="M 47.089 36.411 L 53.745 32.567 L 55.788 36.102 L 49.128 39.946 L 47.089 36.411 Z" fill-rule="evenodd" style="stroke-width: 1; fill: #2fbf71; transform-origin: 43.65px 28.354px;" transform="matrix(0, 1, -1, 0, -0.00000572, 0.00000286)"/>
  <path d="M 50.691 42.653 L 57.351 38.809 L 59.39 42.348 L 52.734 46.192 L 50.691 42.653 Z" fill-rule="evenodd" style="stroke-width: 1; fill: #2fbf71; transform-origin: 43.65px 28.354px;" transform="matrix(0, 1, -1, 0, -0.00000572, 0.00000286)"/>
  <path d="M 54.296 48.895 L 60.953 45.052 L 62.992 48.587 L 56.335 52.431 L 54.296 48.895 Z" fill-rule="evenodd" style="stroke-width: 1; fill: #2fbf71; transform-origin: 43.65px 28.354px;" transform="matrix(0, 1, -1, 0, -0.00000572, 0.00000286)"/>
  <path d="M 64.554 51.294 L 57.898 55.138 L 58.015 55.348 C 58.523 56.231 59.367 56.872 60.351 57.138 C 61.336 57.399 62.386 57.263 63.265 56.755 C 64.148 56.247 64.793 55.403 65.054 54.419 C 65.32 53.434 65.183 52.384 64.672 51.505 L 64.554 51.294 Z" fill-rule="evenodd" style="stroke-width: 1; fill: #2fbf71; transform-origin: 43.65px 28.354px;" transform="matrix(0, 1, -1, 0, -0.00000572, 0.00000286)"/>
  <path d="M 63.281 60.118 C 63.82 59.962 64.336 59.743 64.828 59.458 C 65.258 59.212 65.652 58.919 66.011 58.594 C 66.011 58.594 72.691 71.564 71.945 71.993 C 71.199 72.423 63.285 60.118 63.285 60.118 L 63.281 60.118 Z" fill-rule="evenodd" style="stroke-width: 1; fill: rgb(234, 246, 239); transform-origin: 43.65px 28.354px;" transform="matrix(0, 1, -1, 0, -0.00000572, 0.00000286)"/>
  <path d="M 30.314 49.042 L 19.103 54.362 L 15.298 60.96 L 21.713 71.952 L 34.44 72.006 C 34.44 72.006 38.248 65.409 38.248 65.409 L 37.244 53.042 L 30.834 63.018 C 29.912 64.452 28.025 64.913 26.545 64.057 C 26.404 63.975 26.26 63.893 26.123 63.815 C 24.646 62.964 24.1 61.1 24.881 59.581 L 30.314 49.042 Z" fill-rule="evenodd" style="stroke-width: 1; fill: #2fbf71; transform-origin: 43.652px 28.354px;" transform="matrix(0.000001, 1, -1, 0.000001, -0.00000403, 0.0000026)"/>
  <path d="M 43.552 30.183 L 46.958 32.148 L 28.2 61.328 C 28.181 61.363 28.138 61.371 28.107 61.351 L 27.685 61.109 C 27.65 61.089 27.638 61.046 27.657 61.015 L 43.552 30.179 L 43.552 30.183 Z" fill-rule="evenodd" style="stroke-width: 1; fill: rgb(234, 246, 239); transform-origin: 43.652px 28.354px;" transform="matrix(0.000001, 1, -1, 0.000001, -0.00000403, 0.0000026)"/>
  <path d="M 43.49 26.538 L 50.146 30.382 L 52.185 26.843 L 45.529 22.999 L 43.49 26.538 Z" fill-rule="evenodd" style="stroke-width: 1; fill: rgb(234, 246, 239); transform-origin: 43.652px 28.354px;" transform="matrix(0.000001, 1, -1, 0.000001, -0.00000403, 0.0000026)"/>
  <path d="M 47.091 20.296 L 53.747 24.14 L 55.79 20.605 L 49.13 16.761 L 47.091 20.296 Z" fill-rule="evenodd" style="stroke-width: 1; fill: #2fbf71; transform-origin: 43.652px 28.354px;" transform="matrix(0.000001, 1, -1, 0.000001, -0.00000403, 0.0000026)"/>
  <path d="M 50.693 14.054 L 57.353 17.898 L 59.392 14.359 L 52.736 10.515 L 50.693 14.054 Z" fill-rule="evenodd" style="stroke-width: 1; fill: #2fbf71; transform-origin: 43.652px 28.354px;" transform="matrix(0.000001, 1, -1, 0.000001, -0.00000403, 0.0000026)"/>
  <path d="M 54.298 7.812 L 60.955 11.655 L 62.994 8.12 L 56.337 4.276 L 54.298 7.812 Z" fill-rule="evenodd" style="stroke-width: 1; fill: #2fbf71; transform-origin: 43.652px 28.354px;" transform="matrix(0.000001, 1, -1, 0.000001, -0.00000403, 0.0000026)"/>
  <path d="M 64.556 5.413 L 57.9 1.569 L 58.017 1.359 C 58.525 0.476 59.369 -0.165 60.353 -0.431 C 61.338 -0.692 62.388 -0.556 63.267 -0.048 C 64.15 0.46 64.795 1.304 65.056 2.288 C 65.322 3.273 65.185 4.323 64.674 5.202 L 64.556 5.413 Z" fill-rule="evenodd" style="stroke-width: 1; fill: #2fbf71; transform-origin: 43.652px 28.354px;" transform="matrix(0.000001, 1, -1, 0.000001, -0.00000403, 0.0000026)"/>
  <path d="M 63.283 -3.411 C 63.822 -3.255 64.338 -3.036 64.83 -2.751 C 65.26 -2.505 65.654 -2.212 66.013 -1.887 C 66.013 -1.887 72.693 -14.857 71.947 -15.286 C 71.201 -15.716 63.287 -3.411 63.287 -3.411 L 63.283 -3.411 Z" fill-rule="evenodd" style="stroke-width: 1; fill: rgb(234, 246, 239); transform-origin: 43.652px 28.354px;" transform="matrix(0.000001, 1, -1, 0.000001, -0.00000403, 0.0000026)"/>
</svg>