<svg viewBox="0 0 24 24" fill="none" xmlns="http://www.w3.org/2000/svg">
	<defs>
		<mask id="holeMask" maskUnits="userSpaceOnUse" maskContentUnits="userSpaceOnUse">
			<rect x="0" y="0" width="24" height="24" fill="white" />
			<circle cx="12" cy="12" r="1.25" fill="black" />
		</mask>
	</defs>
	<g id="SVGRepo_bgCarrier" stroke-width="0"></g>
	<g id="SVGRepo_tracerCarrier" stroke-linecap="round" stroke-linejoin="round"></g>
	<g id="SVGRepo_iconCarrier" mask="url(#holeMask)">
		<path d="M12 3C7.02944 3 3 7.02944 3 12C3 15.0777 4.55928 17.865 7.0231 19.5009L5.25 19.5C4.83579 19.5 4.5 19.8358 4.5 20.25C4.5 20.6297 4.78215 20.9435 5.14823 20.9932L5.25 21H9.25C9.6297 21 9.94349 20.7178 9.99315 20.3518L10 20.25V16.25C10 15.8358 9.66421 15.5 9.25 15.5C8.8703 15.5 8.55651 15.7822 8.50685 16.1482L8.5 16.25L8.49903 18.635C6.07593 17.3557 4.5 14.8247 4.5 12C4.5 7.85786 7.85786 4.5 12 4.5C16.1421 4.5 19.5 7.85786 19.5 12C19.5 12.4142 19.8358 12.75 20.25 12.75C20.6642 12.75 21 12.4142 21 12C21 7.02944 16.9706 3 12 3Z" fill="#eaf6ef"/>
		<circle cx="12" cy="12" r="2.75" fill="#2fbf71" />
	</g>
</svg>