<svg viewBox="0 0 24 24" fill="none" xmlns="http://www.w3.org/2000/svg">
	<defs>
		<mask id="holeMask" maskUnits="userSpaceOnUse" maskContentUnits="userSpaceOnUse">
			<rect x="0" y="0" width="24" height="24" fill="white" />
			<circle cx="12" cy="12" r="1.25" fill="black" />
		</mask>
	</defs>
	<g id="SVGRepo_bgCarrier" stroke-width="0"></g>
	<g id="SVGRepo_tracerCarrier" stroke-linecap="round" stroke-linejoin="round"></g>
	<g id="SVGRepo_iconCarrier" mask="url(#holeMask)">
		<path d="M12 3C16.9706 3 21 7.02944 21 12C21 15.0777 19.4407 17.865 16.9769 19.5009L18.75 19.5C19.1642 19.5 19.5 19.8358 19.5 20.25C19.5 20.6297 19.2178 20.9435 18.8518 20.9932L18.75 21H14.75C14.3703 21 14.0565 20.7178 14.0068 20.3518L14 20.25V16.25C14 15.8358 14.3358 15.5 14.75 15.5C15.1297 15.5 15.4435 15.7822 15.4932 16.1482L15.5 16.25L15.501 18.635C17.9241 17.3557 19.5 14.8247 19.5 12C19.5 7.85786 16.1421 4.5 12 4.5C7.85786 4.5 4.5 7.85786 4.5 12C4.5 12.4142 4.16421 12.75 3.75 12.75C3.33579 12.75 3 12.4142 3 12C3 7.02944 7.02944 3 12 3Z" fill="#eaf6ef"/>
		<circle cx="12" cy="12" r="2.75" fill="#2fbf71" />
	</g>
</svg>